<svg xmlns="http://www.w3.org/2000/svg" viewBox="0 0 89.17 84.91" fill="none">
    <g id="Layer_2" data-name="Layer 2">
        <g id="Layer_1-2" data-name="Layer 1">
            <path fill="currentColor" d="M67.54,64.17A10.37,10.37,0,1,0,77.9,74.55h0A10.38,10.38,0,0,0,67.54,64.17Z"/>
            <path fill="currentColor" d="M85.18,14.44H22L21,7.75A9,9,0,0,0,12.13,0H4A4,4,0,0,0,4,8h8.14a1,1,0,0,1,1,.88L19.3,51.1a11.06,11.06,0,0,0,10.89,9.34H71.8a11,11,0,0,0,10.79-8.79L89.1,19.2a4,4,0,0,0-3.17-4.69A3.81,3.81,0,0,0,85.18,14.44Z"/>
            <path fill="currentColor" d="M31.74,64.18A10.37,10.37,0,0,0,32,84.91h.25a10.37,10.37,0,0,0-.49-20.73Z"/>
        </g>
    </g>
</svg>